<?xml version="1.0" standalone="no"?>
<!DOCTYPE svg PUBLIC "-//W3C//DTD SVG 20010904//EN"
 "http://www.w3.org/TR/2001/REC-SVG-20010904/DTD/svg10.dtd">
<svg version="1.0" xmlns="http://www.w3.org/2000/svg"
 width="500.000000pt" height="500.000000pt" viewBox="0 0 500.000000 500.000000"
 preserveAspectRatio="xMidYMid meet">
<metadata>
Created by potrace 1.14, written by Peter Selinger 2001-2017
</metadata>
<g transform="translate(0.000000,500.000000) scale(0.100000,-0.100000)"
fill="#000000" stroke="none">
<path d="M1237 3804 c-2 -2 -24 -6 -48 -8 -172 -18 -458 -93 -629 -166 -186
-80 -355 -196 -445 -307 -207 -252 -104 -443 395 -740 47 -28 148 -88 225
-133 140 -83 215 -135 215 -150 0 -4 -38 -29 -84 -55 -46 -26 -102 -65 -125
-87 -92 -92 -69 -207 50 -242 84 -25 239 -2 318 47 l34 20 20 -24 c112 -139
210 -207 379 -263 134 -44 261 -60 463 -60 121 0 261 8 312 18 12 3 46 7 75
10 29 4 64 8 78 11 105 18 150 25 180 30 96 15 175 30 405 75 138 27 264 52
280 55 17 3 68 12 115 20 352 60 657 68 855 21 114 -28 239 -99 321 -182 63
-64 138 -197 165 -291 12 -43 41 -59 52 -30 7 19 -35 135 -79 216 -110 204
-306 328 -569 359 -121 14 -418 7 -550 -13 -16 -3 -48 -7 -70 -10 -22 -3 -80
-12 -130 -21 -49 -8 -102 -17 -117 -20 -70 -11 -101 -17 -213 -41 -66 -14
-131 -27 -145 -29 -14 -3 -72 -14 -130 -26 -58 -11 -114 -22 -126 -23 -11 -2
-45 -8 -75 -14 -30 -5 -72 -13 -94 -16 -22 -3 -51 -7 -65 -10 -291 -47 -599
-53 -800 -15 -209 39 -372 135 -481 280 -19 26 -26 45 -24 74 3 50 -11 88 -58
160 -39 59 -39 73 1 77 6 1 15 2 20 3 4 1 34 8 67 15 124 25 115 25 115 -4 0
-72 64 -117 124 -87 33 16 59 43 81 83 15 28 61 44 68 25 2 -6 1 -33 -2 -61
-10 -79 -2 -110 31 -118 48 -13 114 36 145 105 l17 37 17 -29 c19 -30 45 -48
67 -44 6 1 19 2 27 3 9 0 27 12 41 26 16 16 26 20 28 12 13 -41 18 -48 42 -57
38 -15 81 2 129 49 l41 39 1 -35 c0 -19 5 -39 11 -45 23 -23 50 4 87 87 21 47
42 85 46 85 5 0 9 -26 9 -59 0 -66 15 -89 44 -68 9 7 32 48 51 91 39 90 47
101 70 93 13 -6 15 -20 9 -106 -6 -92 -5 -100 15 -120 32 -32 72 -27 128 18
54 42 103 96 103 113 0 12 -2 10 -83 -59 -80 -69 -109 -61 -100 27 13 135 5
165 -46 175 -31 6 -87 -18 -103 -44 -16 -26 -23 -26 -48 -1 -28 28 -58 14 -97
-44 -20 -29 -35 -42 -37 -35 -14 47 -17 50 -38 47 -19 -2 -23 -9 -23 -41 0
-32 -7 -46 -44 -83 -44 -45 -86 -58 -97 -30 -3 8 -6 61 -7 118 -2 102 -2 103
-27 103 -22 0 -26 -8 -47 -83 -26 -94 -47 -132 -73 -132 -25 0 -37 37 -38 113
0 38 -2 71 -5 74 -11 10 -46 -9 -52 -28 -4 -11 -8 -39 -9 -62 -1 -23 -10 -56
-19 -73 -23 -43 -72 -94 -92 -94 -15 0 -16 9 -12 72 6 105 3 111 -49 105 -48
-5 -52 1 -35 47 12 30 -5 48 -37 39 -12 -3 -22 -6 -22 -7 0 -1 -4 -15 -9 -33
-7 -22 -5 -39 5 -59 14 -26 13 -29 -21 -64 -37 -38 -67 -47 -84 -26 -6 6 -11
50 -13 96 -3 83 -4 85 -28 85 -21 0 -27 -7 -34 -38 -10 -39 -15 -42 -86 -50
-19 -3 -75 -13 -123 -23 -58 -12 -92 -15 -101 -9 -58 43 -185 122 -376 235
-418 247 -550 373 -550 523 0 150 171 332 432 461 252 124 560 203 823 212
239 7 362 -42 427 -169 16 -33 19 -53 15 -103 -5 -72 -35 -133 -108 -220 -27
-33 -49 -62 -49 -66 0 -5 12 -8 26 -8 48 0 167 150 194 244 42 152 -64 297
-252 342 -66 16 -349 30 -361 18z m-190 -1596 c55 -79 67 -147 33 -191 -43
-55 -206 -90 -270 -59 -63 30 -71 111 -18 165 49 50 175 127 209 127 8 0 29
-19 46 -42z"/>
<path d="M3032 3223 c-40 -16 -85 -177 -99 -353 -9 -100 -8 -399 1 -485 15
-156 59 -225 143 -225 34 0 88 31 103 60 l12 22 24 -23 c49 -46 133 -23 179
49 23 36 35 40 35 12 0 -10 10 -28 22 -40 42 -39 134 -19 180 39 l24 32 13
-40 c6 -22 21 -47 32 -55 25 -17 66 -12 92 12 17 15 19 14 40 -12 34 -42 102
-48 144 -12 28 24 39 50 57 137 6 26 7 26 43 14 21 -7 50 -11 64 -10 24 3 28
0 34 -32 18 -97 69 -153 139 -153 29 0 46 9 81 41 25 23 45 37 45 31 0 -18 55
-42 85 -36 52 9 87 37 122 98 12 21 12 21 13 -2 0 -13 11 -34 25 -47 55 -55
167 -11 212 83 22 47 10 49 -25 4 -17 -21 -47 -47 -66 -57 -36 -19 -36 -19
-56 0 -23 24 -26 48 -16 128 6 48 5 58 -9 63 -9 4 -26 1 -38 -5 -15 -8 -32 -8
-54 -2 -37 11 -81 1 -122 -25 -39 -26 -58 -53 -81 -115 -20 -57 -84 -129 -113
-129 -35 0 -72 73 -83 160 -5 38 1 63 36 150 39 98 82 255 95 347 3 23 8 57
10 75 9 63 7 185 -4 224 -20 74 -77 107 -117 67 -43 -43 -79 -187 -91 -358 -5
-80 -5 -344 0 -450 2 -34 -1 -40 -18 -41 -36 -1 -74 26 -95 66 -11 22 -25 41
-30 41 -6 1 -16 2 -22 3 -22 3 -28 -16 -28 -90 0 -75 -13 -127 -38 -157 -14
-16 -17 -16 -33 -1 -22 20 -36 63 -42 127 -2 26 -9 53 -14 58 -15 15 -53 -7
-53 -31 0 -23 -29 -111 -40 -124 -14 -14 -28 27 -35 104 -7 78 -17 95 -45 80
-11 -6 -17 -22 -17 -49 0 -55 -67 -132 -110 -125 -7 1 -17 2 -22 3 -22 3 -33
79 -20 140 4 18 5 40 2 47 -7 19 -52 18 -59 -1 -5 -11 -10 -12 -18 -5 -17 13
-64 16 -104 6 -47 -11 -107 -75 -120 -128 -19 -73 -96 -148 -136 -132 -29 11
-59 93 -60 163 -1 55 6 83 41 171 23 58 44 117 47 130 3 14 15 70 26 125 27
130 37 288 21 352 -19 74 -59 106 -109 86z m68 -79 c15 -46 6 -244 -16 -334
-3 -14 -8 -36 -10 -50 -15 -78 -72 -270 -81 -270 -5 0 4 250 12 330 3 25 7 73
10 106 5 62 11 110 21 173 14 86 44 107 64 45z m1231 9 c10 -27 14 -167 5
-208 -2 -11 -7 -45 -10 -76 -12 -102 -87 -379 -102 -379 -6 0 11 346 21 425 3
17 7 59 10 95 13 141 50 210 76 143z m316 -748 c13 -34 -90 -170 -124 -163
-48 9 -10 142 48 171 33 16 68 12 76 -8z m-1232 5 c17 -27 -85 -170 -121 -170
-42 0 -31 97 16 149 22 23 37 31 64 31 19 0 38 -5 41 -10z"/>
<path d="M1184 3185 c-55 -27 -74 -56 -74 -111 0 -73 56 -130 173 -175 97 -37
130 -53 151 -74 9 -9 16 -12 16 -6 0 16 -38 38 -131 76 -108 45 -152 77 -174
125 -25 55 -15 107 27 143 18 15 38 27 45 27 6 0 15 5 18 10 9 14 5 13 -51
-15z"/>
<path d="M1209 3163 c-34 -24 -39 -33 -39 -77 0 -51 40 -111 92 -137 21 -11
73 -33 115 -49 151 -58 151 -94 1 -208 -57 -44 -68 -58 -68 -93 0 -22 34 -59
54 -59 21 0 48 30 42 46 -4 10 18 25 67 49 40 19 90 51 112 71 37 34 38 35 5
11 -19 -13 -69 -41 -110 -62 -41 -21 -76 -41 -78 -46 -2 -5 -10 -9 -18 -9 -8
0 -19 -10 -24 -22 -9 -23 -9 -23 -9 3 -1 32 17 49 94 87 131 65 184 127 171
196 -13 66 -61 93 -218 126 -141 30 -178 51 -178 101 0 34 37 51 55 25 13 -18
25 -11 25 14 0 40 -53 59 -91 33z"/>
<path d="M1481 1953 c1 -27 4 -38 6 -26 2 13 13 24 26 26 l22 4 -22 2 c-33 2
-29 29 5 34 25 4 25 4 -5 6 -33 1 -33 1 -32 -46z"/>
<path d="M1641 1953 c1 -33 3 -41 7 -25 8 28 23 28 40 -1 13 -22 13 -22 6 2
-4 15 -1 27 7 33 10 7 8 8 -6 3 -35 -11 -39 -10 -43 9 -3 15 1 18 22 14 14 -3
23 -1 20 3 -3 5 -16 9 -30 9 -22 0 -24 -4 -23 -47z"/>
<path d="M1827 1981 c-3 -14 -1 -18 9 -14 8 3 14 -1 14 -11 0 -10 -6 -13 -16
-9 -15 6 -34 -11 -34 -32 0 -5 4 -4 9 3 12 20 44 21 58 3 8 -9 6 4 -4 32 -19
51 -28 58 -36 28z"/>
<path d="M1993 1988 c-32 -42 -7 -86 42 -74 28 7 32 36 5 43 -13 4 -13 3 0 -6
19 -13 0 -34 -26 -29 -14 2 -19 12 -19 33 0 28 3 30 34 28 24 -1 30 1 20 8
-20 12 -45 11 -56 -3z"/>
<path d="M2176 1960 c-18 -44 -21 -64 -6 -39 6 11 18 15 35 11 14 -2 25 -1 25
2 0 9 -30 66 -34 66 -2 0 -11 -18 -20 -40z m34 -6 c0 -14 -12 -19 -23 -8 -9 9
4 35 14 28 5 -3 9 -12 9 -20z"/>
<path d="M2334 1954 c-1 -28 2 -40 7 -32 5 7 9 22 9 33 0 16 5 13 30 -15 l29
-35 -1 50 c-1 47 -1 48 -7 13 l-6 -36 -25 34 c-14 18 -27 34 -30 34 -3 0 -5
-21 -6 -46z"/>
<path d="M2526 1984 c-9 -8 -16 -22 -16 -29 0 -21 29 -45 56 -45 13 0 24 4 24
9 0 4 -10 6 -23 4 -31 -6 -55 22 -40 45 6 10 22 17 36 17 14 -1 23 3 21 7 -9
13 -42 9 -58 -8z"/>
<path d="M2700 1955 c0 -44 0 -45 33 -44 30 2 30 2 5 6 -29 4 -38 27 -15 36
10 4 10 6 0 6 -25 2 -13 30 15 34 25 4 25 4 -5 6 -33 1 -33 0 -33 -44z"/>
<path d="M2867 1993 c-15 -14 -6 -34 19 -43 28 -11 23 -35 -7 -27 -11 3 -17 1
-13 -4 8 -14 41 -11 47 5 6 16 -11 36 -30 36 -7 0 -13 7 -13 16 0 11 6 15 20
11 11 -3 18 -1 14 4 -6 11 -28 12 -37 2z"/>
<path d="M3640 1810 c0 -33 -4 -60 -9 -60 -4 0 -28 16 -52 35 -48 38 -59 42
-59 21 0 -8 23 -31 50 -51 55 -41 55 -43 -2 -93 -48 -41 -38 -55 37 -50 35 2
66 6 69 9 12 12 13 56 1 72 -9 13 -11 41 -8 98 5 69 4 79 -11 79 -13 0 -16
-11 -16 -60z m14 -136 c9 -23 -2 -34 -35 -34 l-29 0 22 25 c25 29 34 31 42 9z"/>
<path d="M3917 1863 c-2 -5 -2 -19 -1 -33 2 -28 6 -158 5 -177 -1 -8 -15 -13
-36 -13 -30 0 -35 3 -35 23 0 55 -59 87 -92 50 -42 -49 -27 -103 29 -103 35 0
36 -1 19 -19 -10 -11 -31 -23 -47 -26 -17 -4 -29 -13 -29 -22 0 -28 62 -7 96
32 25 28 39 35 67 35 26 0 39 6 47 20 10 19 13 202 3 227 -6 14 -20 17 -26 6z
m-99 -196 c3 -23 0 -27 -21 -27 -29 0 -43 26 -26 47 18 21 44 11 47 -20z"/>
<path d="M4447 1744 c-3 -4 -2 -15 4 -26 6 -10 9 -31 7 -46 -2 -21 -9 -28 -30
-30 -28 -3 -33 5 -29 51 4 33 -27 17 -33 -18 -6 -31 -10 -35 -37 -35 -28 0
-30 2 -27 32 4 44 -18 46 -32 3 -10 -31 -16 -36 -38 -33 -21 2 -32 13 -46 46
-11 23 -24 41 -30 38 -11 -3 -11 -8 4 -57 10 -35 -7 -68 -47 -94 -18 -11 -32
-26 -33 -32 0 -26 33 -12 74 29 31 31 48 41 68 39 15 -1 36 2 47 8 13 7 22 8
26 1 8 -13 51 -13 76 0 13 7 19 7 19 0 0 -18 66 -11 83 8 33 37 7 149 -26 116z"/>
</g>
</svg>
